<svg xmlns="http://www.w3.org/2000/svg" width="228.84" height="121" viewBox="0 0 228.84 121">
  <g id="Grupo_16" data-name="Grupo 16" transform="translate(3 -7)">
    <text id="Geek_Store" data-name="Geek
Store" transform="translate(-3 64)" fill="#3483fa" font-size="54" font-family="Poppins-ExtraBold, Poppins" font-weight="800"><tspan x="0" y="0">Geek</tspan><tspan x="0" y="45">Store</tspan></text>
    <path id="headset-solid" d="M24.855,26.926a4.143,4.143,0,0,0-4.142-4.142H18.641a8.284,8.284,0,0,0-8.285,8.285v6.214a8.284,8.284,0,0,0,8.285,8.285h2.071a4.143,4.143,0,0,0,4.142-4.142ZM47.638,45.567a8.284,8.284,0,0,0,8.285-8.285V31.068a8.284,8.284,0,0,0-8.285-8.285H45.567a4.143,4.143,0,0,0-4.142,4.142v14.5a4.143,4.143,0,0,0,4.142,4.142ZM33.14,0C14.651,0,.593,15.383,0,33.14v2.071a2.071,2.071,0,0,0,2.071,2.071H4.142a2.071,2.071,0,0,0,2.071-2.071V33.14a26.926,26.926,0,1,1,53.852,0H60.05c.01.315.016,21.453.016,21.453a5.473,5.473,0,0,1-5.473,5.473H41.425a6.214,6.214,0,0,0-6.214-6.214H31.068a6.214,6.214,0,0,0,0,12.427H54.593A11.687,11.687,0,0,0,66.279,54.593V33.14C65.687,15.383,51.628,0,33.14,0Z" transform="translate(159.56 33.922)" fill="#3483fa"/>
  </g>
</svg>
